<svg xmlns="http://www.w3.org/2000/svg" xmlns:xlink="http://www.w3.org/1999/xlink" version="1.1" width="595.2756pt" height="283.4646pt" viewBox="0 0 595.2756 283.4646">
<g id="layer_1" data-name="Camada 1">
<path transform="matrix(1,0,0,-1,0,283.4646)" d="M75.3642 171.1508C76.2168 173.5591 77.4876 175.843 79.0591 177.9043 80.6661 180.017 82.5985 181.9023 84.7205 183.469 86.9077 185.0839 89.3237 186.3876 91.8235 187.2774 94.2942 188.1488 96.855 188.6372 99.383 188.6372H202.6687L317.9928 208.9363 420.3014 188.5873 514.7025 188.6372C515.7791 188.6372 516.8494 188.5425 517.9056 188.3633 518.9777 188.1845 520.0061 187.9155 520.9877 187.5699 522.68 186.9741 524.2141 186.1387 525.5739 185.1026 526.9584 184.051 528.1469 182.7876 529.1257 181.3564 530.0776 179.9515 530.8089 178.4174 531.3036 176.781 531.7875 175.1723 532.0363 173.4749 532.0363 171.722 532.0363 170.6562 531.932 169.5095 531.7112 168.3026 531.5043 167.1511 531.2041 166.0107 530.8055 164.8874L501.1569 81.0448C500.3042 78.6368 499.0331 76.3529 497.4622 74.2915 495.8549 72.1789 493.9228 70.2933 491.8008 68.7268 489.6133 67.1119 487.1976 65.808 484.6972 64.9182 482.2268 64.0471 479.6663 63.5587 477.138 63.5587H373.8523L258.5285 43.2598 156.2196 63.6083 61.8185 63.5587C60.7422 63.5587 59.6716 63.6537 58.6154 63.8325 57.5436 64.0111 56.5152 64.2807 55.5335 64.6257 53.8407 65.2218 52.3069 66.0572 50.9474 67.0932 49.5624 68.1449 48.3738 69.4083 47.3956 70.8395 46.4434 72.2441 45.7123 73.7782 45.2174 75.4149 44.7335 77.0233 44.4847 78.7207 44.4847 80.4742 44.4847 81.5397 44.589 82.6863 44.8101 83.8936 45.017 85.0448 45.3172 86.1851 45.7152 87.3082 55.597 115.2615 65.4738 143.1995 75.3642 171.1508Z" fill="#ed3237"/>
<path transform="matrix(1,0,0,-1,0,283.4646)" stroke-width=".216" stroke-linecap="butt" stroke-miterlimit="22.925585" stroke-linejoin="miter" fill="none" stroke="#ed3237" d="M75.3642 171.1508C76.2168 173.5591 77.4876 175.843 79.0591 177.9043 80.6661 180.017 82.5985 181.9023 84.7205 183.469 86.9077 185.0839 89.3237 186.3876 91.8235 187.2774 94.2942 188.1488 96.855 188.6372 99.383 188.6372H202.6687L317.9928 208.9363 420.3014 188.5873 514.7025 188.6372C515.7791 188.6372 516.8494 188.5425 517.9056 188.3633 518.9777 188.1845 520.0061 187.9155 520.9877 187.5699 522.68 186.9741 524.2141 186.1387 525.5739 185.1026 526.9584 184.051 528.1469 182.7876 529.1257 181.3564 530.0776 179.9515 530.8089 178.4174 531.3036 176.781 531.7875 175.1723 532.0363 173.4749 532.0363 171.722 532.0363 170.6562 531.932 169.5095 531.7112 168.3026 531.5043 167.1511 531.2041 166.0107 530.8055 164.8874L501.1569 81.0448C500.3042 78.6368 499.0331 76.3529 497.4622 74.2915 495.8549 72.1789 493.9228 70.2933 491.8008 68.7268 489.6133 67.1119 487.1976 65.808 484.6972 64.9182 482.2268 64.0471 479.6663 63.5587 477.138 63.5587H373.8523L258.5285 43.2598 156.2196 63.6083 61.8185 63.5587C60.7422 63.5587 59.6716 63.6537 58.6154 63.8325 57.5436 64.0111 56.5152 64.2807 55.5335 64.6257 53.8407 65.2218 52.3069 66.0572 50.9474 67.0932 49.5624 68.1449 48.3738 69.4083 47.3956 70.8395 46.4434 72.2441 45.7123 73.7782 45.2174 75.4149 44.7335 77.0233 44.4847 78.7207 44.4847 80.4742 44.4847 81.5397 44.589 82.6863 44.8101 83.8936 45.017 85.0448 45.3172 86.1851 45.7152 87.3082 55.597 115.2615 65.4738 143.1995 75.3642 171.1508Z"/>
<path transform="matrix(1,0,0,-1,0,283.4646)" d="M501.4806 126.6758 516.7531 169.8457C516.9895 170.5224 517.1077 171.1556 517.1077 171.7217 517.1077 172.2648 517.002 172.6863 516.8169 172.9633 516.6581 173.1966 516.3905 173.3879 516.0297 173.5172 515.6841 173.6385 515.2394 173.7037 514.7025 173.7037H99.383C97.4942 173.7037 95.4159 172.8652 93.5864 171.5134 91.6744 170.1023 90.131 168.2152 89.4186 166.1896L75.6241 127.2016 59.7682 82.3501C59.5315 81.6735 59.4133 81.0403 59.4133 80.4739 59.4133 79.9311 59.5193 79.5095 59.7044 79.2326 59.8629 78.9993 60.1305 78.8077 60.4916 78.6787 60.8369 78.5574 61.2819 78.4919 61.8185 78.4919H477.138C479.0268 78.4919 481.1051 79.3307 482.9346 80.6825 484.8466 82.0936 486.39 83.9806 487.1024 86.0063Z" fill="#3e4095"/>
<path transform="matrix(1,0,0,-1,0,283.4646)" d="M243.985 182.4035 315.5406 195.8734 381.1813 182.5177Z" fill="#fefefe" fill-rule="evenodd"/>
<path transform="matrix(1,0,0,-1,0,283.4646)" d="M501.1569 81.0451C500.3045 78.6368 499.0334 76.3529 497.4622 74.2915 495.8549 72.1789 493.9228 70.2933 491.8008 68.7268 489.6133 67.1119 487.1974 65.8083 484.6975 64.9182 482.2268 64.0471 479.6663 63.5587 477.138 63.5587H373.8523L258.5285 43.2595 156.2196 63.6083 61.8185 63.5587C60.7419 63.5587 59.6716 63.6537 58.6154 63.8325 57.5433 64.0114 56.5152 64.2804 55.5335 64.626 53.8407 65.2218 52.3069 66.0572 50.9471 67.0932 49.5626 68.1449 48.3741 69.4083 47.3956 70.8395 46.4434 72.2443 45.7121 73.7782 45.2174 75.4149 44.7335 77.0233 44.4847 78.7207 44.4847 80.4739 44.4847 81.5397 44.589 82.6863 44.8098 83.8936 45.0167 85.0448 45.3169 86.1851 45.7152 87.3082 55.5925 115.2584 65.4761 143.2054 75.3642 171.1508 76.2168 173.5591 77.4879 175.843 79.0591 177.9043 80.6661 180.017 82.5982 181.9023 84.7202 183.469 86.9077 185.0839 89.3237 186.3876 91.8238 187.2774 94.2942 188.1488 96.855 188.6372 99.383 188.6372H202.6687L317.9925 208.9363 420.3014 188.5873 514.7025 188.6372C515.7791 188.6372 516.8494 188.5422 517.9056 188.3633 518.9777 188.1845 520.0058 187.9152 520.9877 187.5699 522.6803 186.9741 524.2141 186.1387 525.5739 185.1026 526.9584 184.051 528.1469 182.7876 529.1257 181.3564 530.0776 179.9515 530.8089 178.4177 531.3036 176.781 531.7875 175.1723 532.0363 173.4752 532.0363 171.7217 532.0363 170.6562 531.932 169.5095 531.7112 168.3023 531.5043 167.1511 531.2041 166.0107 530.8058 164.8874 520.9177 136.9406 511.0373 108.995 501.1569 81.0451ZM51.6302 85.2191C51.3266 84.3633 51.1106 83.5529 50.972 82.7841 50.8351 82.0392 50.7713 81.2611 50.7713 80.4739 50.7713 79.3182 50.927 78.226 51.2334 77.207 51.5384 76.1865 51.9942 75.2357 52.5807 74.3709 53.1797 73.4919 53.9076 72.7203 54.7495 72.0777 55.588 71.4385 56.5478 70.9189 57.6227 70.5407 58.2715 70.312 58.9482 70.1362 59.6438 70.0194 60.3204 69.9075 61.0438 69.8454 61.8185 69.8454H158.3291L260.3923 49.4062 375.9245 69.8454H477.138C478.9536 69.8454 480.8126 70.1986 482.6095 70.8395 484.5356 71.5209 486.3915 72.5227 488.067 73.758 489.7208 74.9775 491.222 76.4493 492.476 78.0953 493.6598 79.6465 494.6088 81.3484 495.2435 83.1359 505.1225 111.0861 515.0044 139.0297 524.8911 166.9768 525.1944 167.8326 525.4106 168.643 525.549 169.4115 525.6859 170.1567 525.7497 170.9345 525.7497 171.7217 525.7497 172.8777 525.594 173.9699 525.2876 174.9889 524.9826 176.0094 524.5268 176.9598 523.9403 177.825 523.3414 178.704 522.6134 179.4756 521.7718 180.1179 520.933 180.7574 519.9732 181.277 518.8983 181.6551 518.2495 181.8839 517.5729 182.0597 516.8775 182.1762 516.2006 182.2884 515.4772 182.3505 514.7025 182.3505H418.1919L316.129 202.7897 200.5965 182.3505H99.383C97.5674 182.3505 95.7084 181.9973 93.9115 181.3564 91.9854 180.6749 90.1295 179.6732 88.454 178.4378 86.8003 177.2181 85.299 175.7463 84.0453 174.1005 82.8612 172.5494 81.9122 170.8475 81.2775 169.06 71.3894 141.1129 61.5073 113.169 51.6302 85.2191Z" fill="#3e4095"/>
<path transform="matrix(1,0,0,-1,0,283.4646)" stroke-width=".216" stroke-linecap="butt" stroke-miterlimit="22.925585" stroke-linejoin="miter" fill="none" stroke="#3e4095" d="M501.1569 81.0451C500.3045 78.6368 499.0334 76.3529 497.4622 74.2915 495.8549 72.1789 493.9228 70.2933 491.8008 68.7268 489.6133 67.1119 487.1974 65.8083 484.6975 64.9182 482.2268 64.0471 479.6663 63.5587 477.138 63.5587H373.8523L258.5285 43.2595 156.2196 63.6083 61.8185 63.5587C60.7419 63.5587 59.6716 63.6537 58.6154 63.8325 57.5433 64.0114 56.5152 64.2804 55.5335 64.626 53.8407 65.2218 52.3069 66.0572 50.9471 67.0932 49.5626 68.1449 48.3741 69.4083 47.3956 70.8395 46.4434 72.2443 45.7121 73.7782 45.2174 75.4149 44.7335 77.0233 44.4847 78.7207 44.4847 80.4739 44.4847 81.5397 44.589 82.6863 44.8098 83.8936 45.0167 85.0448 45.3169 86.1851 45.7152 87.3082 55.5925 115.2584 65.4761 143.2054 75.3642 171.1508 76.2168 173.5591 77.4879 175.843 79.0591 177.9043 80.6661 180.017 82.5982 181.9023 84.7202 183.469 86.9077 185.0839 89.3237 186.3876 91.8238 187.2774 94.2942 188.1488 96.855 188.6372 99.383 188.6372H202.6687L317.9925 208.9363 420.3014 188.5873 514.7025 188.6372C515.7791 188.6372 516.8494 188.5422 517.9056 188.3633 518.9777 188.1845 520.0058 187.9152 520.9877 187.5699 522.6803 186.9741 524.2141 186.1387 525.5739 185.1026 526.9584 184.051 528.1469 182.7876 529.1257 181.3564 530.0776 179.9515 530.8089 178.4177 531.3036 176.781 531.7875 175.1723 532.0363 173.4752 532.0363 171.7217 532.0363 170.6562 531.932 169.5095 531.7112 168.3023 531.5043 167.1511 531.2041 166.0107 530.8058 164.8874 520.9177 136.9406 511.0373 108.995 501.1569 81.0451ZM51.6302 85.2191C51.3266 84.3633 51.1106 83.5529 50.972 82.7841 50.8351 82.0392 50.7713 81.2611 50.7713 80.4739 50.7713 79.3182 50.927 78.226 51.2334 77.207 51.5384 76.1865 51.9942 75.2357 52.5807 74.3709 53.1797 73.4919 53.9076 72.7203 54.7495 72.0777 55.588 71.4385 56.5478 70.9189 57.6227 70.5407 58.2715 70.312 58.9482 70.1362 59.6438 70.0194 60.3204 69.9075 61.0438 69.8454 61.8185 69.8454H158.3291L260.3923 49.4062 375.9245 69.8454H477.138C478.9536 69.8454 480.8126 70.1986 482.6095 70.8395 484.5356 71.5209 486.3915 72.5227 488.067 73.758 489.7208 74.9775 491.222 76.4493 492.476 78.0953 493.6598 79.6465 494.6088 81.3484 495.2435 83.1359 505.1225 111.0861 515.0044 139.0297 524.8911 166.9768 525.1944 167.8326 525.4106 168.643 525.549 169.4115 525.6859 170.1567 525.7497 170.9345 525.7497 171.7217 525.7497 172.8777 525.594 173.9699 525.2876 174.9889 524.9826 176.0094 524.5268 176.9598 523.9403 177.825 523.3414 178.704 522.6134 179.4756 521.7718 180.1179 520.933 180.7574 519.9732 181.277 518.8983 181.6551 518.2495 181.8839 517.5729 182.0597 516.8775 182.1762 516.2006 182.2884 515.4772 182.3505 514.7025 182.3505H418.1919L316.129 202.7897 200.5965 182.3505H99.383C97.5674 182.3505 95.7084 181.9973 93.9115 181.3564 91.9854 180.6749 90.1295 179.6732 88.454 178.4378 86.8003 177.2181 85.299 175.7463 84.0453 174.1005 82.8612 172.5494 81.9122 170.8475 81.2775 169.06 71.3894 141.1129 61.5073 113.169 51.6302 85.2191Z"/>
<path transform="matrix(1,0,0,-1,0,283.4646)" d="M332.536 69.7924 260.9807 56.3221 195.3397 69.6781Z" fill="#fefefe" fill-rule="evenodd"/>
<path transform="matrix(1,0,0,-1,0,283.4646)" d="M83.289 104.5684H89.5944C91.9647 104.5684 93.6734 103.7548 94.7222 102.1309 95.7699 100.5035 95.8385 98.5241 94.9269 96.1894 94.0153 93.8546 92.3992 91.8714 90.0774 90.2356 87.7575 88.6039 85.4118 87.7864 83.0412 87.7864H76.7361ZM83.7096 92.2901C85.0686 92.2901 86.2319 92.5588 87.2005 93.096 88.1685 93.6332 88.952 94.6684 89.5507 96.2011 90.1244 97.6706 90.1281 98.6822 89.562 99.2353 88.996 99.7883 88.0569 100.065 86.7453 100.065ZM105.8494 87.7864H100.8006L107.3537 104.5684H112.4025ZM134.0926 103.5258 130.3024 99.2826C129.8965 99.741 129.5198 100.0806 129.1717 100.302 128.823 100.5231 128.3567 100.6336 127.7722 100.6336 127.3929 100.6336 127.0809 100.5625 126.8354 100.4204 126.5905 100.2781 126.4246 100.0964 126.3382 99.8751 126.1916 99.4997 126.5664 99.1443 127.4641 98.8123 128.3615 98.4807 129.0915 98.1646 129.6539 97.8644 130.2163 97.5643 130.6403 97.0821 130.9229 96.4106 131.2061 95.739 131.1177 94.8144 130.6548 93.6292 130.5006 93.2343 130.3226 92.8389 130.1224 92.448 129.9209 92.0529 129.5436 91.421 128.9925 90.5556 128.4398 89.6868 127.4562 88.9282 126.0434 88.2839 124.6286 87.6362 123.1551 87.3122 121.6225 87.3122 120.4214 87.3122 119.3196 87.5058 118.3173 87.893 117.3149 88.2802 116.5779 88.8214 116.1068 89.5164L120.0671 93.8307C120.5127 93.151 120.9229 92.6535 121.2973 92.3374 121.6715 92.0214 122.1985 91.8632 122.8779 91.8632H123.2334C123.66 91.8632 124.052 91.9661 124.4086 92.1713 124.7655 92.3769 124.9963 92.6138 125.1011 92.8826 125.3095 93.416 124.7332 93.8625 123.3709 94.218 122.008 94.5734 121.0893 95.1542 120.6125 95.9562 120.1371 96.762 120.1198 97.7301 120.564 98.8676 120.7182 99.2628 120.8475 99.563 120.9543 99.7764 121.0615 99.9899 121.3781 100.5786 121.9048 101.5421 122.4298 102.5022 123.3714 103.3359 124.7272 104.0352 126.0842 104.7385 127.529 105.09 129.062 105.09 130.0258 105.09 130.9309 104.9598 131.7773 104.6988 132.6237 104.4383 133.3953 104.0471 134.0926 103.5258ZM150.88 100.065 146.0667 87.7388H141.0415L145.8544 100.065H142.4412L144.1998 104.5684H156.0518L154.2932 100.065ZM165.6096 104.5684H172.1752C174.0402 104.5684 175.3211 104.0746 176.0193 103.091 176.7163 102.1034 176.7498 100.8037 176.1222 99.1956 175.6902 98.0895 175.0433 97.1413 174.1788 96.3434 173.3139 95.5451 172.2847 94.9329 171.0924 94.5102L173.6342 87.7864H167.2583L165.9937 92.6218 164.1056 87.7864H159.0565ZM167.9097 97.5285C168.5418 97.5285 169.1099 97.6275 169.6136 97.8248 170.1173 98.0223 170.4835 98.4135 170.7117 98.9983 170.9215 99.5355 170.8461 99.8989 170.4858 100.0885 170.1247 100.2781 169.6368 100.3731 169.0206 100.3731ZM187.7907 87.7864H182.742L189.2948 104.5684H194.3439ZM203.9255 104.5684H210.2306C211.8266 104.5684 213.0001 104.2248 213.7524 103.5414 214.5033 102.854 214.5597 101.6923 213.9211 100.057 213.6617 99.3932 213.3666 98.8401 213.0327 98.3897 212.6988 97.9396 212.2245 97.4733 211.6066 96.9834 212.9964 96.0511 213.2997 94.5814 212.5159 92.5744 211.9235 91.0576 210.8361 89.8801 209.2524 89.0425 207.6693 88.2051 206.0243 87.7864 204.3176 87.7864H197.3724ZM205.1612 94.2574 204.2634 91.9582H205.52C205.9308 91.9582 206.3344 92.0608 206.7307 92.2663 207.127 92.4715 207.3929 92.7482 207.5287 93.096 207.6704 93.4594 207.6197 93.7437 207.3759 93.9492 207.1324 94.1547 206.7891 94.2574 206.3466 94.2574ZM207.5309 100.3255 206.7531 98.3344C207.2115 98.3344 207.6358 98.4095 208.025 98.5558 208.4153 98.7058 208.677 98.9507 208.8113 99.2945 208.9638 99.6857 208.9032 99.9541 208.6296 100.1041 208.355 100.2504 207.9893 100.3255 207.5309 100.3255ZM226.2832 104.5684H231.4035L227.7181 95.1307C226.893 93.0169 227.2221 91.9582 228.7071 91.9582 230.1928 91.9582 231.3488 93.0169 232.1742 95.1307L235.8595 104.5684H241.0033L237.3151 95.1225C236.1934 92.2507 234.7526 90.22 232.9909 89.0269 231.2308 87.8377 229.1885 87.241 226.8655 87.241 224.574 87.241 223.0081 87.8338 222.1656 89.015 221.3246 90.2001 221.4675 92.2346 222.5951 95.1225ZM248.9859 87.7864H243.9371L250.4903 104.5684H255.5391ZM265.1207 104.5684H271.4261C273.7964 104.5684 275.5054 103.7548 276.554 102.1309 277.6014 100.5035 277.6703 98.5241 276.7586 96.1894 275.8467 93.8546 274.231 91.8714 271.9091 90.2356 269.5893 88.6039 267.2433 87.7864 264.873 87.7864H258.5676ZM265.5411 92.2901C266.9 92.2901 268.0637 92.5588 269.032 93.096 270.0006 93.6332 270.7838 94.6684 271.3822 96.2011 271.9562 97.6706 271.9599 98.6822 271.3938 99.2353 270.8277 99.7883 269.8886 100.065 268.577 100.065ZM298.59 105.1611C301.1658 105.1611 303.01 104.3393 304.1206 102.6921 305.2329 101.0486 305.2633 98.8795 304.2128 96.1894 303.1931 93.5779 301.4711 91.425 299.0492 89.7338 296.6253 88.0393 294.1339 87.1937 291.5739 87.1937 289.0298 87.1937 287.1938 88.0353 286.0665 89.7219 284.938 91.4049 284.8876 93.562 285.9134 96.1894 286.9515 98.8481 288.6883 101.0089 291.1218 102.6683 293.557 104.3314 296.0456 105.1611 298.59 105.1611ZM291.0711 96.2249C290.6203 95.0712 290.6351 94.127 291.1144 93.3922 291.594 92.6575 292.4028 92.2901 293.5406 92.2901 294.6308 92.2901 295.7136 92.6654 296.7891 93.416 297.8643 94.1666 298.6211 95.1026 299.0594 96.2249 299.516 97.3942 299.5013 98.3384 299.0154 99.0575 298.5301 99.7764 297.726 100.1358 296.604 100.1358 295.482 100.1358 294.3921 99.7724 293.3337 99.0454 292.2758 98.3188 291.5215 97.3783 291.0711 96.2249ZM317.3505 104.5684H323.9164C325.7813 104.5684 327.062 104.0746 327.7602 103.091 328.4572 102.1034 328.4909 100.8037 327.8631 99.1956 327.4311 98.0895 326.7842 97.1413 325.9196 96.3434 325.0548 95.5451 324.0255 94.9329 322.8335 94.5102L325.3754 87.7864H318.9994L317.7349 92.6218 315.8467 87.7864H310.7976ZM319.6505 97.5285C320.2826 97.5285 320.8507 97.6275 321.3544 97.8248 321.8584 98.0223 322.2244 98.4135 322.4529 98.9983 322.6626 99.5355 322.5872 99.8989 322.2266 100.0885 321.8658 100.2781 321.3777 100.3731 320.7614 100.3731ZM334.4831 87.7864 347.5545 104.5684H352.7691L352.6398 87.7864H347.0457L347.0567 90.6072H342.2211L339.982 87.7864ZM347.3838 97.5759 345.2355 94.6843H347.2268ZM386.4813 104.5684H391.5303L386.7355 92.2901H391.6896L389.931 87.7864H379.9281ZM412.2717 100.065 407.4585 87.7388H402.4332L407.2465 100.065H403.8333L405.5919 104.5684H417.4435L415.6849 100.065ZM427.0014 104.5684H433.3065C435.6771 104.5684 437.3861 103.7548 438.4346 102.1309 439.4823 100.5035 439.5512 98.5241 438.6393 96.1894 437.7277 93.8546 436.1117 91.8714 433.7898 90.2356 431.4702 88.6039 429.1243 87.7864 426.7536 87.7864H420.4485ZM427.422 92.2901C428.781 92.2901 429.9446 92.5588 430.9129 93.096 431.8809 93.6332 432.6647 94.6684 433.2631 96.2011 433.8369 97.6706 433.8408 98.6822 433.2745 99.2353 432.7084 99.7883 431.7693 100.065 430.458 100.065ZM444.513 87.7864 457.5847 104.5684H462.7993L462.67 87.7864H457.0758L457.0869 90.6072H452.2513L450.0122 87.7864ZM457.4143 97.5759 455.2656 94.6843H457.2567ZM477.1196 93.333C477.9573 93.333 478.5542 93.0407 478.9106 92.4559 479.2671 91.8714 479.2816 91.1602 478.9545 90.3226 478.6274 89.4849 478.0576 88.774 477.2446 88.1892 476.4317 87.6044 475.6062 87.3122 474.7686 87.3122 473.9312 87.3122 473.3342 87.6044 472.9776 88.1892 472.6213 88.774 472.6066 89.4849 472.934 90.3226 473.2611 91.1602 473.8309 91.8714 474.6438 92.4559 475.4568 93.0407 476.2823 93.333 477.1196 93.333" fill="#fefefe" fill-rule="evenodd"/>
<path transform="matrix(1,0,0,-1,0,283.4646)" d="M84.9115 119.3193H97.9951L115.0931 164.2317H102.0095ZM130.6338 119.3193H145.944L163.042 164.2317H151.6289L139.8464 133.2822H139.7072L138.7545 164.2317H123.5832L106.4852 119.3193H117.8986L129.7542 150.4619H130.0326ZM161.5326 119.3193H174.6156L188.2355 155.0948H198.6744L202.1528 164.2317H168.1917L164.7133 155.0948H175.1522ZM190.4825 119.3193H221.1727L224.5533 128.1988H206.6681L210.3423 137.8502H226.4876L229.8679 146.7298H213.7226L217.0052 155.3522H233.9858L237.3659 164.2317H207.5808ZM250.35 145.5075 254.1957 155.6096H257.8147C259.6706 155.6096 260.8826 155.1376 261.4516 154.194 262.0196 153.2503 261.9938 151.9634 261.3733 150.3334 260.8345 148.9178 259.8596 147.7596 258.4497 146.8587 257.04 145.9579 255.6156 145.5075 254.1776 145.5075ZM250.7494 119.3193H264.2502L265.2058 133.3463C265.4351 136.2634 265.278 138.2579 264.7352 139.3305 264.1924 140.4028 263.2221 141.175 261.8246 141.647L261.8977 141.8397C263.1557 142.0974 264.4234 142.4724 265.7015 142.9659 266.98 143.4591 268.2261 144.1134 269.441 144.9283 270.6562 145.7433 271.7592 146.7516 272.7499 147.9526 273.7409 149.1537 274.5383 150.5477 275.1426 152.1351 276.694 156.21 276.5384 159.245 274.6766 161.2397 272.8145 163.2342 269.3784 164.2317 264.3678 164.2317H244.9517L227.8534 119.3193H240.9369L247.6244 136.8853H248.3203C249.6195 136.8853 250.5986 136.5636 251.2582 135.9201 251.9184 135.2767 252.1587 133.9897 251.9807 132.0593ZM286.0852 127.6841 290.0781 138.1723H294.1146C295.8313 138.1723 296.9736 137.7003 297.5426 136.7566 298.1109 135.813 298.0769 134.5045 297.4399 132.8318 296.1334 129.3999 293.5083 127.6841 289.565 127.6841ZM270.3742 119.3193H289.025C293.8966 119.3193 298.1432 120.3596 301.7653 122.44 305.3877 124.5203 308.0066 127.6841 309.6235 131.9309 310.7506 134.8909 310.7908 137.2822 309.7449 139.1051 308.6994 140.9284 306.7121 142.0758 303.7833 142.5475L303.8321 142.6762C306.8609 143.3197 309.5172 144.4779 311.8011 146.1509 314.085 147.8239 315.8558 150.3119 317.1132 153.6148 318.4033 157.0037 318.1119 159.6203 316.239 161.4651 314.3667 163.3093 310.9017 164.2317 305.8444 164.2317H287.4722ZM293.1644 146.2796 296.9124 156.1243H300.253C301.8767 156.1243 303.0092 155.717 303.6495 154.9018 304.2904 154.0865 304.3006 152.8642 303.6801 151.2343 303.0106 149.4754 301.9723 148.21 300.5646 147.4376 299.1572 146.6657 297.5485 146.2796 295.7394 146.2796ZM334.1384 145.5075 337.9844 155.6096H341.6034C343.459 155.6096 344.6714 155.1376 345.24 154.194 345.8086 153.2503 345.7828 151.9634 345.162 150.3334 344.6232 148.9178 343.6486 147.7596 342.2387 146.8587 340.8284 145.9579 339.4043 145.5075 337.9663 145.5075ZM334.5381 119.3193H348.0389L348.9948 133.3463C349.2238 136.2634 349.0665 138.2579 348.5239 139.3305 347.9814 140.4028 347.0108 141.175 345.613 141.647L345.6867 141.8397C346.9445 142.0974 348.2124 142.4724 349.4906 142.9659 350.7684 143.4591 352.0151 144.1134 353.23 144.9283 354.4452 145.7433 355.5479 146.7516 356.5386 147.9526 357.5293 149.1537 358.327 150.5477 358.9313 152.1351 360.4827 156.21 360.3274 159.245 358.4653 161.2397 356.6035 163.2342 353.1674 164.2317 348.1563 164.2317H328.7404L311.6424 119.3193H324.7257L331.4129 136.8853H332.1088C333.4082 136.8853 334.3876 136.5636 335.0472 135.9201 335.7068 135.2767 335.9477 133.9897 335.7694 132.0593ZM382.487 119.3193H395.9878L397.6364 164.2317H383.2308L349.9875 119.3193H362.514L369.271 128.8423H383.5372ZM384.3842 137.4644H374.7804L386.7117 155.0948H386.8512ZM400.322 120.2845C400.3682 120.2845 400.4529 120.263 400.576 120.2202 402.3913 119.7482 404.2352 119.3513 406.1075 119.0299 407.9801 118.7079 410.1457 118.5471 412.6045 118.5471 418.4504 118.5471 423.5641 119.8233 427.9459 122.3756 432.3274 124.9279 435.4328 128.6062 437.2617 133.4106 438.4213 136.4564 438.601 138.848 437.8011 140.5851 437.0009 142.3225 435.5294 143.7273 433.3856 144.7997L428.4709 147.2448C426.6334 148.1457 425.4664 148.9499 424.9704 149.6577 424.4743 150.3655 424.4389 151.2771 424.8632 152.3925 425.3859 153.7651 426.3426 154.8162 427.7336 155.5452 429.1245 156.2746 430.7944 156.6391 432.743 156.6391 434.5061 156.6391 436.2066 156.4138 437.8445 155.9633 439.4826 155.5129 440.8367 154.9874 441.9068 154.387L445.8197 163.2022C444.2717 163.8887 442.5026 164.3604 440.513 164.6178 438.5231 164.8752 436.4379 165.0039 434.2575 165.0039 429.0148 165.0039 424.309 163.8241 420.1398 161.4651 415.9709 159.1055 413.0946 155.8454 411.5106 151.6847 410.2532 148.3815 410.0094 145.7005 410.7798 143.6414 411.55 141.5823 413.5915 139.8453 416.903 138.4296L419.3643 137.3998C421.2811 136.5849 422.5504 135.8666 423.1715 135.2443 423.7931 134.6227 423.8427 133.6252 423.32 132.2524 422.7486 130.7511 421.7774 129.5714 420.4071 128.7136 419.0366 127.8556 417.168 127.4267 414.8022 127.4267 412.7607 127.4267 410.8221 127.7269 408.9858 128.3272 407.1501 128.9279 405.7668 129.5286 404.8356 130.1289ZM439.274 119.3193H452.3576L469.4553 164.2317H456.372ZM461.126 119.3193H490.2157L493.6941 128.4562H477.6877L491.3073 164.2317H478.224Z" fill="#fefefe" fill-rule="evenodd"/>
<path transform="matrix(1,0,0,-1,0,283.4646)" d="M505.6569 172.5154C506.6606 172.5154 507.6204 172.3153 508.4946 171.953 509.4043 171.5766 510.222 171.0249 510.9058 170.3415 511.5895 169.6578 512.1408 168.8394 512.5173 167.9304 512.8795 167.0556 513.0799 166.0961 513.0799 165.0923 513.0799 164.0883 512.8795 163.1285 512.5173 162.2531 512.1414 161.3449 511.5898 160.5271 510.9058 159.8437 510.222 159.1597 509.4043 158.6081 508.4946 158.2316 507.6204 157.8694 506.6606 157.6692 505.6569 157.6692 504.6528 157.6692 503.6933 157.8694 502.8188 158.2316 501.91 158.6081 501.0919 159.1597 500.4082 159.8434 499.7254 160.5263 499.1734 161.3441 498.797 162.2531 498.4345 163.1279 498.2338 164.088 498.2338 165.0923 498.2338 166.0961 498.4342 167.055 498.7964 167.9301 499.1723 168.8383 499.7242 169.6567 500.4082 170.3412 501.7507 171.684 503.6074 172.5154 505.6569 172.5154ZM505.9069 165.704C506.1144 165.704 506.2935 165.7236 506.4435 165.7607 506.5869 165.7962 506.7048 165.85 506.7958 165.9195 506.8811 165.9852 506.9458 166.0774 506.9891 166.1927 507.0356 166.3174 507.0594 166.4725 507.0594 166.6568L507.0495 166.8016 507.0192 166.9632C507.007 167.0134 506.9883 167.0632 506.9645 167.1106 506.9407 167.1568 506.91 167.2033 506.874 167.2478 506.8386 167.2906 506.795 167.3317 506.7448 167.368 506.6926 167.4065 506.6323 167.4417 506.5662 167.472 506.501 167.502 506.4245 167.525 506.3369 167.5406 506.2453 167.5568 506.1424 167.565 506.0282 167.565H504.089V165.704ZM502.3227 169.2094H506.3502C506.6257 169.2094 506.8755 169.1872 507.0974 169.1433 507.3236 169.0988 507.5252 169.0305 507.6995 168.9386 507.8707 168.8494 508.0238 168.7501 508.1562 168.6427 508.2905 168.5336 508.4076 168.4142 508.5045 168.285 508.5995 168.1594 508.6806 168.0301 508.7452 167.8975 508.8101 167.766 508.8603 167.6302 508.8934 167.493 508.9266 167.3592 508.9516 167.2373 508.9674 167.1293 508.9842 167.0173 508.9927 166.9144 508.9927 166.8234 508.9927 166.5901 508.9643 166.3682 508.909 166.1598 508.8535 165.9512 508.7687 165.7545 508.6562 165.5711 508.5428 165.3857 508.4022 165.2281 508.2372 165.0988 508.1488 165.0297 508.0527 164.9687 507.9492 164.9157L508.1289 164.8125C508.2018 164.7683 508.2687 164.7133 508.3294 164.6493 508.3889 164.5872 508.4433 164.5146 508.4909 164.433 508.5377 164.353 508.5799 164.2618 508.6145 164.1603 508.6491 164.0608 508.678 163.9497 508.701 163.8298 508.7239 163.7101 508.7418 163.5724 508.7531 163.4179 508.7645 163.266 508.7704 163.095 508.7704 162.9068L508.7758 162.1882 508.7883 161.9371 508.8121 161.7514C508.822 161.7007 508.8345 161.6573 508.8478 161.6221 508.8606 161.5901 508.8759 161.5623 508.8917 161.5408 508.9065 161.5215 508.9255 161.5039 508.9484 161.4883 508.9708 161.4725 508.9997 161.4589 509.0326 161.4481L509.1253 161.4175V160.9753H507.0501L507.0212 161.0711C506.9906 161.1717 506.9631 161.2772 506.9404 161.3857 506.9177 161.4963 506.8979 161.6117 506.8831 161.7301 506.8681 161.8506 506.8559 161.9943 506.8485 162.159 506.8412 162.3251 506.8369 162.5125 506.8369 162.7174L506.8307 163.0911 506.8108 163.3986C506.8026 163.4828 506.7867 163.5596 506.7649 163.6268 506.7425 163.6926 506.7139 163.751 506.679 163.8009 506.6467 163.8476 506.6031 163.8899 506.5515 163.9253 506.4987 163.9616 506.4341 163.9922 506.3598 164.0154 506.281 164.0409 506.1855 164.0599 506.0735 164.0724 505.9593 164.0852 505.8252 164.092 505.6733 164.092H504.089V160.9753H502.1884V169.2094ZM509.8955 169.3312C509.343 169.8837 508.682 170.3299 507.9495 170.6332 507.244 170.9252 506.4693 171.0867 505.6569 171.0867 504.8447 171.0867 504.07 170.9252 503.3653 170.6332 502.6317 170.3299 501.9712 169.8843 501.4182 169.3312 500.8654 168.7782 500.4198 168.1177 500.1163 167.385 499.8246 166.6797 499.663 165.905 499.663 165.0923 499.663 164.2796 499.8246 163.5046 500.1163 162.7999 500.4198 162.0669 500.8654 161.4064 501.4182 160.8534 501.9712 160.3006 502.6317 159.8545 503.3642 159.5517 504.0697 159.2595 504.8439 159.0979 505.6569 159.0979 506.4695 159.0979 507.2445 159.2595 507.9498 159.5517 508.6826 159.8545 509.343 160.3009 509.8955 160.8534 510.4483 161.4053 510.8939 162.0663 511.1977 162.7999 511.4897 163.5049 511.6516 164.2796 511.6516 165.0923 511.6516 165.905 511.4897 166.6797 511.1977 167.3853 510.8941 168.118 510.4488 168.7785 509.8955 169.3312" fill="#fefefe" fill-rule="evenodd"/>
</g>
</svg>
