<?xml version="1.0" standalone="no"?>
<!DOCTYPE svg PUBLIC "-//W3C//DTD SVG 20010904//EN"
 "http://www.w3.org/TR/2001/REC-SVG-20010904/DTD/svg10.dtd">
<svg version="1.0" xmlns="http://www.w3.org/2000/svg"
 width="1588.000000pt" height="1588.000000pt" viewBox="0 0 1588.000000 1588.000000"
 preserveAspectRatio="xMidYMid meet">
<metadata>
Created by potrace 1.14, written by Peter Selinger 2001-2017
</metadata>
<g transform="translate(0.000000,1588.000000) scale(0.100000,-0.100000)"
fill="#000000" stroke="none">
<path d="M8468 9735 c-2 -2 -19 -6 -38 -9 -19 -3 -46 -8 -60 -11 -13 -2 -42
-7 -65 -10 -22 -3 -47 -8 -55 -10 -8 -3 -33 -7 -55 -10 -42 -5 -58 -8 -140
-25 -27 -6 -66 -13 -85 -15 -19 -3 -60 -10 -90 -16 -30 -6 -70 -12 -88 -14
-18 -2 -41 -6 -50 -9 -9 -3 -35 -8 -57 -11 -22 -4 -51 -8 -65 -11 -14 -2 -38
-7 -55 -9 -16 -3 -40 -7 -52 -10 -44 -10 -58 -12 -108 -20 -81 -12 -89 -14
-115 -19 -13 -3 -42 -8 -64 -12 -22 -3 -43 -7 -47 -10 -4 -2 -26 -6 -50 -8
-24 -3 -55 -8 -69 -11 -14 -3 -41 -8 -60 -11 -19 -2 -57 -9 -85 -14 -27 -5
-63 -12 -80 -15 -16 -3 -41 -7 -55 -10 -14 -3 -42 -7 -62 -10 -20 -3 -57 -9
-82 -15 -25 -5 -49 -10 -53 -9 -5 1 -11 0 -15 -1 -13 -4 -21 -6 -73 -14 -27
-5 -59 -10 -70 -12 -23 -4 -58 -12 -65 -14 -3 -1 -8 -2 -12 -1 -4 0 -53 -8
-110 -18 -57 -11 -119 -22 -138 -25 -19 -3 -71 -12 -115 -20 -44 -9 -96 -18
-115 -20 -19 -3 -46 -8 -60 -11 -14 -3 -43 -8 -65 -11 -22 -3 -56 -9 -75 -14
-19 -5 -55 -11 -80 -14 -44 -6 -62 -9 -125 -23 -16 -3 -669 -7 -1450 -8 -781
-1 -1436 -5 -1455 -9 -223 -48 -395 -177 -510 -381 -18 -33 -43 -98 -125 -335
-24 -69 -54 -155 -68 -192 -14 -36 -23 -69 -20 -72 4 -3 2 -6 -4 -6 -5 0 -10
-6 -10 -12 -1 -7 -17 -56 -36 -108 -19 -52 -49 -138 -67 -190 -18 -52 -43
-124 -57 -160 -13 -36 -26 -72 -28 -80 -6 -20 -92 -263 -116 -325 -11 -27 -21
-60 -23 -72 -3 -12 -10 -31 -16 -43 -6 -12 -13 -29 -15 -38 -3 -9 -21 -62 -40
-117 -20 -55 -38 -108 -40 -117 -2 -9 -12 -36 -23 -60 -20 -47 -36 -99 -34
-110 1 -5 -3 -8 -10 -8 -6 0 -9 -3 -6 -6 3 -3 -5 -35 -19 -72 -14 -37 -26 -71
-27 -77 -2 -5 -8 -22 -14 -37 -35 -86 -56 -179 -56 -253 -1 -101 5 -130 42
-209 58 -123 185 -219 326 -245 40 -7 474 -11 1350 -12 1201 0 1297 -1 1371
-18 44 -10 83 -19 88 -19 4 -1 8 -2 10 -3 1 0 11 -2 22 -4 91 -15 130 -22 130
-25 0 -1 12 -3 27 -5 16 -2 61 -11 100 -19 40 -9 84 -18 98 -20 14 -3 26 -5
28 -7 1 -1 10 -2 20 -3 9 -1 31 -5 47 -9 17 -4 44 -9 60 -12 17 -2 84 -16 150
-29 66 -14 131 -27 145 -30 14 -3 36 -7 50 -11 14 -3 39 -7 55 -10 17 -2 41
-7 55 -10 14 -3 36 -7 50 -10 14 -3 36 -7 50 -10 14 -3 39 -8 55 -10 17 -3 37
-8 45 -10 15 -4 37 -9 95 -20 29 -5 130 -25 150 -30 6 -1 33 -6 60 -10 28 -5
52 -9 55 -10 3 -1 21 -4 40 -8 19 -4 53 -12 75 -17 39 -8 123 -25 175 -35 14
-3 36 -7 50 -10 14 -2 36 -7 50 -9 14 -3 48 -10 75 -15 44 -10 70 -15 175 -36
14 -3 39 -8 55 -11 17 -3 64 -12 105 -21 120 -24 122 -25 185 -27 33 -1 65 2
71 6 7 5 16 8 20 7 5 -1 11 0 14 1 7 2 32 7 82 15 46 7 71 12 103 19 11 2 45
8 75 12 59 9 69 10 73 14 1 1 11 3 22 4 20 3 115 18 125 21 3 0 26 4 51 8 43
7 68 12 114 21 11 2 40 7 65 11 25 4 54 9 65 11 21 4 110 20 160 29 17 2 40 7
51 9 12 2 39 7 60 10 22 4 75 13 119 21 75 13 105 19 165 29 38 7 103 18 125
21 11 2 20 4 20 5 0 1 9 3 20 4 11 2 40 7 65 11 25 5 52 9 60 10 8 1 29 4 45
8 17 4 46 9 65 11 19 3 44 7 55 9 51 11 112 22 168 31 12 1 36 6 52 9 17 3 46
9 65 11 19 3 46 8 60 11 14 3 41 7 60 10 19 2 36 5 38 6 3 2 13 4 65 13 27 4
59 9 70 12 25 5 359 64 397 70 14 2 39 6 55 9 17 2 41 8 55 12 24 7 343 9
2125 16 l830 3 65 22 c212 74 379 230 461 433 16 39 29 75 29 79 0 5 5 21 12
37 6 15 12 33 14 38 1 6 23 69 49 140 26 72 71 198 100 280 29 83 55 157 58
165 3 8 13 35 21 60 8 25 22 62 30 82 9 21 16 39 15 40 0 2 4 16 10 31 6 16
11 35 11 43 0 8 5 14 12 14 6 0 9 3 6 6 -6 5 30 120 52 169 10 22 90 254 93
270 1 6 4 12 7 15 3 3 23 59 45 125 22 66 45 123 50 127 6 4 7 8 3 8 -4 0 -3
12 3 28 14 34 110 303 113 317 4 13 14 40 32 85 62 159 77 314 40 415 -59 159
-176 261 -341 298 -49 10 -305 13 -1340 12 -704 -1 -1293 2 -1310 6 -16 4 -46
10 -65 13 -19 3 -55 10 -80 15 -25 5 -81 16 -125 25 -44 9 -91 18 -105 21 -14
4 -41 8 -60 11 -19 2 -43 7 -52 10 -10 3 -30 7 -45 10 -25 4 -58 11 -103 21
-8 2 -26 5 -40 8 -14 2 -46 8 -73 14 -26 6 -64 14 -85 17 -20 3 -44 7 -52 9
-8 3 -33 7 -55 11 -22 3 -44 8 -48 11 -4 2 -22 6 -40 9 -42 5 -155 28 -207 41
-8 2 -26 5 -40 7 -14 2 -38 6 -55 10 -16 3 -39 8 -50 10 -11 2 -90 18 -175 36
-85 17 -168 34 -185 36 -56 10 -70 12 -140 27 -59 13 -112 24 -160 33 -5 1
-12 3 -15 4 -3 1 -14 3 -25 5 -11 1 -31 5 -45 8 -14 2 -108 21 -210 42 -102
20 -194 39 -205 41 -11 3 -33 6 -50 8 -16 2 -37 6 -45 9 -19 8 -78 16 -82 12z"/>
</g>
</svg>
